<svg width="33" height="21" viewBox="0 0 33 21" fill="none" xmlns="http://www.w3.org/2000/svg">
<g clip-path="url(#clip0_38052_4627)">
<path fill-rule="evenodd" clip-rule="evenodd" d="M6.5663 16.3337C6.65931 16.3337 6.74553 16.2842 6.79257 16.2036L6.79667 16.1966L9.85417 11.2398L9.85417 4.66699L4.13029 4.66699C4.00747 4.66699 3.90125 4.75225 3.87464 4.87199L3.87232 4.88239L2.17235 11.5221C2.1412 11.6831 2.26454 11.8337 2.42951 11.8337L5.02083 11.8337C5.45495 11.8337 5.89423 11.9787 6.21404 12.2908C6.55025 12.619 6.70612 13.0889 6.60609 13.5953L6.12686 16.021C6.09486 16.1829 6.2188 16.3337 6.38375 16.3337L6.5663 16.3337ZM11.1875 4.66699L11.1875 10.7622L13.5498 10.7622C13.6936 10.7622 13.8106 10.6462 13.8117 10.5023C13.8117 10.5023 13.8117 10.5023 13.8117 10.5023L13.8542 4.93085C13.8553 4.78555 13.7377 4.66699 13.5923 4.66699L11.1875 4.66699ZM10.8929 12.0956L7.93945 16.8837C7.65257 17.3688 7.13068 17.667 6.5663 17.667L6.38375 17.667C5.37861 17.667 4.62399 16.7486 4.81881 15.7625L5.29804 13.3368C5.30657 13.2937 5.30104 13.274 5.29971 13.2697C5.29823 13.2649 5.29497 13.257 5.28274 13.245C5.25485 13.2178 5.17182 13.167 5.02083 13.167L2.42951 13.167C1.40886 13.167 0.650896 12.2217 0.872281 11.2256L0.87459 11.2152L2.57573 4.57094C2.74227 3.84721 3.38674 3.33366 4.13029 3.33366L13.5923 3.33366C14.478 3.33366 15.1942 4.05528 15.1875 4.941C15.1875 4.94099 15.1875 4.94102 15.1875 4.941L15.145 10.5124C15.1383 11.3886 14.4261 12.0956 13.5498 12.0956L10.8929 12.0956Z" fill="#FF4242"/>
<path d="M31.7 10.988C31.7 11.8653 31.6043 12.626 31.413 13.27C31.2263 13.9093 30.9697 14.439 30.643 14.859C30.3163 15.279 29.929 15.5917 29.481 15.797C29.0377 16.0023 28.5617 16.105 28.053 16.105C27.5397 16.105 27.0613 16.0023 26.618 15.797C26.1793 15.5917 25.7967 15.279 25.47 14.859C25.1433 14.439 24.8867 13.9093 24.7 13.27C24.5133 12.626 24.42 11.8653 24.42 10.988C24.42 10.1107 24.5133 9.35 24.7 8.706C24.8867 8.062 25.1433 7.53 25.47 7.11C25.7967 6.68533 26.1793 6.37033 26.618 6.165C27.0613 5.95967 27.5397 5.857 28.053 5.857C28.5617 5.857 29.0377 5.95967 29.481 6.165C29.929 6.37033 30.3163 6.68533 30.643 7.11C30.9697 7.53 31.2263 8.062 31.413 8.706C31.6043 9.35 31.7 10.1107 31.7 10.988ZM30.405 10.988C30.405 10.2227 30.3397 9.581 30.209 9.063C30.083 8.54033 29.9103 8.12033 29.691 7.803C29.4763 7.48567 29.2267 7.25933 28.942 7.124C28.6573 6.984 28.361 6.914 28.053 6.914C27.745 6.914 27.4487 6.984 27.164 7.124C26.8793 7.25933 26.6297 7.48567 26.415 7.803C26.2003 8.12033 26.0277 8.54033 25.897 9.063C25.771 9.581 25.708 10.2227 25.708 10.988C25.708 11.7533 25.771 12.395 25.897 12.913C26.0277 13.431 26.2003 13.8487 26.415 14.166C26.6297 14.4833 26.8793 14.712 27.164 14.852C27.4487 14.9873 27.745 15.055 28.053 15.055C28.361 15.055 28.6573 14.9873 28.942 14.852C29.2267 14.712 29.4763 14.4833 29.691 14.166C29.9103 13.8487 30.083 13.431 30.209 12.913C30.3397 12.395 30.405 11.7533 30.405 10.988Z" fill="#787A80"/>
</g>
<defs>
<clipPath id="clip0_38052_4627">
<rect width="33" height="21" fill="white"/>
</clipPath>
</defs>
</svg>
