<svg width="78" height="14" viewBox="0 0 78 14" fill="none" xmlns="http://www.w3.org/2000/svg">
<path fill-rule="evenodd" clip-rule="evenodd" d="M5.93074 1.28395C6.33601 0.349362 7.66139 0.349361 8.06665 1.28395L9.2926 4.11107L12.3602 4.40338C13.3743 4.50001 13.7838 5.76052 13.0202 6.43476L10.7103 8.47433L11.3802 11.4821C11.6017 12.4764 10.5295 13.2555 9.65225 12.7376L6.9987 11.171L4.34515 12.7376C3.46794 13.2555 2.39569 12.4764 2.61716 11.4821L3.2871 8.47433L0.977173 6.43476C0.213564 5.76052 0.623127 4.50001 1.63721 4.40338L4.7048 4.11108L5.93074 1.28395Z" fill="#F89828"/>
<path fill-rule="evenodd" clip-rule="evenodd" d="M21.9307 1.28395C22.336 0.349362 23.6614 0.349361 24.0667 1.28395L25.2926 4.11107L28.3602 4.40338C29.3743 4.50001 29.7838 5.76052 29.0202 6.43476L26.7103 8.47433L27.3802 11.4821C27.6017 12.4764 26.5295 13.2555 25.6522 12.7376L22.9987 11.171L20.3451 12.7376C19.4679 13.2555 18.3957 12.4764 18.6172 11.4821L19.2871 8.47433L16.9772 6.43476C16.2136 5.76052 16.6231 4.50001 17.6372 4.40338L20.7048 4.11108L21.9307 1.28395ZM24.2246 4.57418L22.9987 1.74705L21.7728 4.57418C21.6041 4.96315 21.2373 5.22965 20.8152 5.26987L17.7476 5.56218L20.0575 7.60175C20.3754 7.88236 20.5155 8.31357 20.4233 8.7274L19.7534 11.7352L22.4069 10.1686C22.772 9.95304 23.2254 9.95304 23.5905 10.1686L26.244 11.7352L25.5741 8.7274C25.4819 8.31357 25.622 7.88236 25.9398 7.60175L28.2498 5.56218L25.1822 5.26987C24.7601 5.22965 24.3933 4.96315 24.2246 4.57418Z" fill="#B3B7BC"/>
<path fill-rule="evenodd" clip-rule="evenodd" d="M37.9307 1.28395C38.336 0.349362 39.6614 0.349361 40.0667 1.28395L41.2926 4.11107L44.3602 4.40338C45.3743 4.50001 45.7838 5.76052 45.0202 6.43476L42.7103 8.47433L43.3802 11.4821C43.6017 12.4764 42.5295 13.2555 41.6522 12.7376L38.9987 11.171L36.3451 12.7376C35.4679 13.2555 34.3957 12.4764 34.6172 11.4821L35.2871 8.47433L32.9772 6.43476C32.2136 5.76052 32.6231 4.50001 33.6372 4.40338L36.7048 4.11108L37.9307 1.28395ZM40.2246 4.57418L38.9987 1.74705L37.7728 4.57418C37.6041 4.96315 37.2373 5.22965 36.8152 5.26987L33.7476 5.56218L36.0575 7.60175C36.3754 7.88236 36.5155 8.31357 36.4233 8.7274L35.7534 11.7352L38.4069 10.1686C38.772 9.95304 39.2254 9.95304 39.5905 10.1686L42.244 11.7352L41.5741 8.7274C41.4819 8.31357 41.622 7.88236 41.9398 7.60175L44.2498 5.56218L41.1822 5.26987C40.7601 5.22965 40.3933 4.96315 40.2246 4.57418Z" fill="#B3B7BC"/>
<path fill-rule="evenodd" clip-rule="evenodd" d="M53.9307 1.28395C54.336 0.349362 55.6614 0.349361 56.0667 1.28395L57.2926 4.11107L60.3602 4.40338C61.3743 4.50001 61.7838 5.76052 61.0202 6.43476L58.7103 8.47433L59.3802 11.4821C59.6017 12.4764 58.5295 13.2555 57.6522 12.7376L54.9987 11.171L52.3451 12.7376C51.4679 13.2555 50.3957 12.4764 50.6172 11.4821L51.2871 8.47433L48.9772 6.43476C48.2136 5.76052 48.6231 4.50001 49.6372 4.40338L52.7048 4.11108L53.9307 1.28395ZM56.2246 4.57418L54.9987 1.74705L53.7728 4.57418C53.6041 4.96315 53.2373 5.22965 52.8152 5.26987L49.7476 5.56218L52.0575 7.60175C52.3754 7.88236 52.5155 8.31357 52.4233 8.7274L51.7534 11.7352L54.4069 10.1686C54.772 9.95304 55.2254 9.95304 55.5905 10.1686L58.244 11.7352L57.5741 8.7274C57.4819 8.31357 57.622 7.88236 57.9398 7.60175L60.2498 5.56218L57.1822 5.26987C56.7601 5.22965 56.3933 4.96315 56.2246 4.57418Z" fill="#B3B7BC"/>
<path fill-rule="evenodd" clip-rule="evenodd" d="M69.9307 1.28395C70.336 0.349362 71.6614 0.349361 72.0667 1.28395L73.2926 4.11107L76.3602 4.40338C77.3743 4.50001 77.7838 5.76052 77.0202 6.43476L74.7103 8.47433L75.3802 11.4821C75.6017 12.4764 74.5295 13.2555 73.6522 12.7376L70.9987 11.171L68.3451 12.7376C67.4679 13.2555 66.3957 12.4764 66.6172 11.4821L67.2871 8.47433L64.9772 6.43476C64.2136 5.76052 64.6231 4.50001 65.6372 4.40338L68.7048 4.11108L69.9307 1.28395ZM72.2246 4.57418L70.9987 1.74705L69.7728 4.57418C69.6041 4.96315 69.2373 5.22965 68.8152 5.26987L65.7476 5.56218L68.0575 7.60175C68.3754 7.88236 68.5155 8.31357 68.4233 8.7274L67.7534 11.7352L70.4069 10.1686C70.772 9.95304 71.2254 9.95304 71.5905 10.1686L74.244 11.7352L73.5741 8.7274C73.4819 8.31357 73.622 7.88236 73.9398 7.60175L76.2498 5.56218L73.1822 5.26987C72.7601 5.22965 72.3933 4.96315 72.2246 4.57418Z" fill="#B3B7BC"/>
</svg>
